<svg xmlns="http://www.w3.org/2000/svg" viewBox="-8 4 686 188" fill="none" stroke="currentColor" stroke-linecap="round" stroke-linejoin="round" stroke-width="4.5" role="img" aria-label="Lower Manhattan skyline, 2001">
  <title>Lower Manhattan skyline, 2001</title>
  <path d="M0 184 H26 V154 H54 V171 H72 V144 H83 V118 L90 109 V103.5 V109 L97 118 V144 H108 V162 H150 V123 L162 110.1 L174 123 V140 H192 V47.2 H203 V11.2 V47.2 H214 V118 H232 V47.8 H254 V128 A13 8.5 0 0 1 280 128 V160 H306 V147 H324 V165 H352 V102.7 H382 V153 H406 V110 L410 105 L417 96 V91.3 V96 L424 105 L428 110 V137 H444 V106 L447 102 V96 L451 88.8 L455 96 V102 L458 106 V159 H496 V172 H536 V151 H566 V169 H612 V120 H644 V184 H670"/>
</svg>
